<svg xmlns="http://www.w3.org/2000/svg" xmlns:xlink="http://www.w3.org/1999/xlink" version="1.1" width="256" height="256" viewBox="0 0 256 256" xml:space="preserve">
<desc>Created with Fabric.js 1.7.22</desc>
<defs>
</defs>
<g transform="translate(128 128) scale(0.72 0.72)" style="">
	<g style="stroke: none; stroke-width: 0; stroke-dasharray: none; stroke-linecap: butt; stroke-linejoin: miter; stroke-miterlimit: 10; fill: none; fill-rule: nonzero; opacity: 1;" transform="translate(-175.05 -175.05000000000004) scale(3.89 3.89)" >
	<path d="M 86.322 19.141 H 61.638 c -0.553 0 -1 0.448 -1 1 s 0.447 1 1 1 h 15.825 v 59.233 H 3.678 C 2.752 80.374 2 79.621 2 78.697 V 22.819 c 0 -0.925 0.752 -1.678 1.678 -1.678 h 14.036 c 0.552 0 1 -0.448 1 -1 s -0.448 -1 -1 -1 H 3.678 C 1.65 19.141 0 20.791 0 22.819 v 55.877 c 0 2.028 1.65 3.678 3.678 3.678 h 82.645 c 2.028 0 3.678 -1.649 3.678 -3.678 V 22.819 C 90 20.791 88.351 19.141 86.322 19.141 z M 88 78.697 c 0 0.925 -0.753 1.678 -1.678 1.678 h -6.859 V 21.141 h 6.859 c 0.925 0 1.678 0.752 1.678 1.678 V 78.697 z" style="stroke: none; stroke-width: 1; stroke-dasharray: none; stroke-linecap: butt; stroke-linejoin: miter; stroke-miterlimit: 10; fill: rgb(0,0,0); fill-rule: nonzero; opacity: 1;" transform=" matrix(1 0 0 1 0 0) " stroke-linecap="round" />
	<circle cx="83.36" cy="50.76" r="2.26" style="stroke: none; stroke-width: 1; stroke-dasharray: none; stroke-linecap: butt; stroke-linejoin: miter; stroke-miterlimit: 10; fill: rgb(0,0,0); fill-rule: nonzero; opacity: 1;" transform="  matrix(1 0 0 1 0 0) "/>
	<path d="M 37.172 27.762 c -0.156 0 -0.313 -0.036 -0.461 -0.113 c -1.068 -0.557 -2.063 -0.557 -3.131 0 c -0.49 0.257 -1.094 0.064 -1.349 -0.424 c -0.255 -0.49 -0.065 -1.094 0.424 -1.349 c 1.652 -0.862 3.329 -0.862 4.981 0 c 0.49 0.255 0.68 0.859 0.424 1.349 C 37.882 27.566 37.533 27.762 37.172 27.762 z" style="stroke: none; stroke-width: 1; stroke-dasharray: none; stroke-linecap: butt; stroke-linejoin: miter; stroke-miterlimit: 10; fill: rgb(0,0,0); fill-rule: nonzero; opacity: 1;" transform=" matrix(1 0 0 1 0 0) " stroke-linecap="round" />
	<path d="M 44.882 27.762 c -0.156 0 -0.313 -0.036 -0.461 -0.113 c -1.069 -0.557 -2.063 -0.557 -3.131 0 c -0.489 0.257 -1.094 0.064 -1.349 -0.424 c -0.255 -0.49 -0.065 -1.094 0.424 -1.349 c 1.651 -0.862 3.328 -0.862 4.981 0 c 0.49 0.255 0.679 0.859 0.424 1.349 C 45.591 27.566 45.243 27.762 44.882 27.762 z" style="stroke: none; stroke-width: 1; stroke-dasharray: none; stroke-linecap: butt; stroke-linejoin: miter; stroke-miterlimit: 10; fill: rgb(0,0,0); fill-rule: nonzero; opacity: 1;" transform=" matrix(1 0 0 1 0 0) " stroke-linecap="round" />
	<path d="M 38.995 36.933 c -1.219 0 -2.436 -0.563 -3.592 -1.69 c -0.396 -0.386 -0.404 -1.019 -0.019 -1.414 c 0.387 -0.395 1.019 -0.404 1.414 -0.019 c 1.538 1.499 2.855 1.499 4.407 -0.002 c 0.396 -0.384 1.03 -0.374 1.414 0.023 c 0.384 0.397 0.374 1.03 -0.023 1.414 C 41.433 36.37 40.212 36.933 38.995 36.933 z" style="stroke: none; stroke-width: 1; stroke-dasharray: none; stroke-linecap: butt; stroke-linejoin: miter; stroke-miterlimit: 10; fill: rgb(0,0,0); fill-rule: nonzero; opacity: 1;" transform=" matrix(1 0 0 1 0 0) " stroke-linecap="round" />
	<path d="M 54.633 44.824 l -5.534 -0.932 c -1.659 -0.279 -2.864 -1.583 -2.864 -3.124 l -0.023 -0.996 c 0.058 -0.056 0.122 -0.103 0.179 -0.159 c 0.199 -0.197 0.384 -0.41 0.572 -0.62 c 2.377 -0.468 4.239 -2.372 4.652 -4.768 h 0.895 c 1.29 0 2.34 -1.05 2.34 -2.34 v -5.648 c 0 -1.29 -1.05 -2.34 -2.34 -2.34 h -1.194 c 0.053 -0.101 0.095 -0.207 0.111 -0.323 c 0.761 -5.43 -0.047 -9.556 -2.4 -12.262 c -2.128 -2.446 -5.451 -3.687 -9.878 -3.687 c 0 0 -0.001 0 -0.001 0 c -4.432 0 -8.258 1.55 -10.497 4.252 c -2.239 2.702 -2.936 6.388 -2.072 10.956 c 0.042 0.222 0.157 0.416 0.317 0.559 l 0.037 0.504 H 25.49 c -1.29 0 -2.34 1.05 -2.34 2.34 v 5.648 c 0 1.29 1.05 2.34 2.34 2.34 h 2.718 c 0.747 2.11 1.977 4.01 3.582 5.547 l -0.024 1.019 c 0 1.518 -1.205 2.822 -2.864 3.101 l -5.534 0.932 c -3.4 0.573 -5.867 3.327 -5.867 6.549 v 11.897 c 0 1.488 1.275 2.698 2.843 2.698 h 11.55 l 6.399 6.4 c 0.188 0.188 0.442 0.293 0.707 0.293 s 0.52 -0.105 0.707 -0.293 l 6.399 -6.4 h 11.551 c 1.567 0 2.843 -1.21 2.843 -2.698 V 51.373 C 60.5 48.152 58.032 45.398 54.633 44.824 z M 52.85 26.237 v 5.648 c 0 0.188 -0.152 0.34 -0.34 0.34 h -2.172 c 0.1 -0.512 0.182 -1.029 0.227 -1.556 l 0.331 -4.772 h 1.614 C 52.697 25.897 52.85 26.05 52.85 26.237 z M 48.385 13.858 c 1.075 1.903 1.496 4.468 1.255 7.658 C 47.765 19.879 46.615 17.959 48.385 13.858 z M 30.189 13.154 c 1.858 -2.243 5.123 -3.528 8.958 -3.528 c 0 0 0.001 0 0.001 0 c 3.464 0 6.101 0.829 7.853 2.465 c -0.141 0.284 -0.271 0.562 -0.39 0.832 c -3.384 6.244 -9.77 9.334 -18.196 8.789 C 27.871 18.109 28.467 15.233 30.189 13.154 z M 25.49 32.225 c -0.188 0 -0.34 -0.152 -0.34 -0.34 v -5.648 c 0 -0.188 0.152 -0.34 0.34 -0.34 h 1.591 l 0.356 4.787 c 0.044 0.522 0.125 1.035 0.224 1.542 H 25.49 z M 29.431 30.526 l -0.505 -6.784 c 6.987 0.318 12.67 -1.716 16.577 -5.863 c 0.151 2.502 1.645 4.18 3.546 5.733 l -0.479 6.904 c -0.118 1.404 -0.473 2.763 -1.054 4.042 c -0.307 0.674 -0.677 1.324 -1.102 1.933 c -0.144 0.207 -0.304 0.403 -0.461 0.601 c -0.044 0.001 -0.084 0.013 -0.128 0.013 h -4.115 c -0.552 0 -1 0.448 -1 1 s 0.448 1 1 1 h 2.235 c -1.023 0.807 -2.163 1.443 -3.406 1.892 c -0.993 0.358 -2.087 0.358 -3.081 0 C 32.979 39.378 29.827 35.264 29.431 30.526 z M 33.717 41.319 c 0.944 0.633 1.967 1.164 3.063 1.56 c 0.716 0.259 1.468 0.388 2.22 0.388 s 1.504 -0.129 2.22 -0.388 c 1.095 -0.396 2.113 -0.927 3.064 -1.563 c 0.153 1.4 0.893 2.646 2.022 3.493 c -4.898 4.287 -9.697 4.286 -14.61 0 C 32.829 43.96 33.569 42.713 33.717 41.319 z M 19.5 63.271 v -5.406 h 4.041 c 0.672 0 1.313 0.257 1.76 0.704 c 0.382 0.383 0.592 0.875 0.592 1.387 c -0.003 2.091 -0.003 3.303 -0.001 4.014 h -5.548 C 19.878 63.969 19.5 63.656 19.5 63.271 z M 45.864 63.969 c -0.311 -0.053 -0.636 0.05 -0.866 0.28 L 39 70.248 l -5.998 -5.999 c -0.221 -0.221 -0.525 -0.315 -0.827 -0.28 h -4.283 c -0.001 -0.714 -0.002 -1.933 0.001 -4.012 c 0.001 -1.045 -0.417 -2.04 -1.176 -2.802 c -0.82 -0.82 -1.977 -1.291 -3.176 -1.291 H 19.5 v -4.491 c 0 -2.242 1.766 -4.166 4.199 -4.576 l 5.534 -0.932 c 0.18 -0.03 0.348 -0.087 0.52 -0.133 c 3.034 2.845 6.144 4.284 9.253 4.284 s 6.215 -1.439 9.241 -4.283 c 0.173 0.046 0.34 0.103 0.519 0.133 l 5.534 0.932 c 2.434 0.41 4.199 2.334 4.199 4.576 v 4.491 h -4.083 c -1.198 0 -2.356 0.471 -3.176 1.291 c -0.76 0.761 -1.178 1.756 -1.177 2.802 c 0.002 1.858 0.003 3.191 0.001 4.012 H 45.864 z M 57.657 63.969 h -5.591 c 0.002 -0.726 0.001 -1.947 -0.001 -4.014 c -0.001 -0.512 0.21 -1.004 0.592 -1.387 c 0.447 -0.447 1.089 -0.704 1.761 -0.704 H 58.5 v 5.406 C 58.5 63.656 58.122 63.969 57.657 63.969 z" style="stroke: none; stroke-width: 1; stroke-dasharray: none; stroke-linecap: butt; stroke-linejoin: miter; stroke-miterlimit: 10; fill: rgb(0,0,0); fill-rule: nonzero; opacity: 1;" transform=" matrix(1 0 0 1 0 0) " stroke-linecap="round" />
</g>
</g>
</svg>