<svg xmlns="http://www.w3.org/2000/svg" xmlns:xlink="http://www.w3.org/1999/xlink" version="1.1" width="256" height="256" viewBox="0 0 256 256" xml:space="preserve">
<desc>Created with Fabric.js 1.7.22</desc>
<defs>
</defs>
<g transform="translate(128 128) scale(0.72 0.72)" style="">
	<g style="stroke: none; stroke-width: 0; stroke-dasharray: none; stroke-linecap: butt; stroke-linejoin: miter; stroke-miterlimit: 10; fill: none; fill-rule: nonzero; opacity: 1;" transform="translate(-175.05 -175.05000000000004) scale(3.89 3.89)" >
	<path d="M 89 77.587 h -5.886 V 35.07 c 0 -3.319 -2.7 -6.019 -6.019 -6.019 H 66.833 c -0.553 0 -1 0.448 -1 1 s 0.447 1 1 1 h 10.263 c 2.216 0 4.019 1.803 4.019 4.019 v 42.517 H 50.836 H 39.164 H 8.886 V 35.07 c 0 -2.216 1.803 -4.019 4.019 -4.019 H 23.02 c 0.552 0 1 -0.448 1 -1 s -0.448 -1 -1 -1 H 12.904 c -3.319 0 -6.019 2.7 -6.019 6.019 v 42.517 H 1 c -0.552 0 -1 0.447 -1 1 v 0.909 c 0 3.322 2.703 6.025 6.026 6.025 h 33.138 h 11.672 h 33.138 c 3.323 0 6.026 -2.703 6.026 -6.025 v -0.909 C 90 78.034 89.553 77.587 89 77.587 z M 6.026 83.521 c -2.189 0 -3.977 -1.757 -4.025 -3.935 h 4.885 h 32.278 v 3.935 H 6.026 z M 41.164 83.521 v -3.935 h 7.672 v 3.935 H 41.164 z M 83.974 83.521 H 50.836 v -3.935 h 32.278 h 4.885 C 87.95 81.765 86.163 83.521 83.974 83.521 z" style="stroke: none; stroke-width: 1; stroke-dasharray: none; stroke-linecap: butt; stroke-linejoin: miter; stroke-miterlimit: 10; fill: rgb(0,0,0); fill-rule: nonzero; opacity: 1;" transform=" matrix(1 0 0 1 0 0) " stroke-linecap="round" />
	<path d="M 37.902 26.432 c -0.373 0 -0.73 -0.209 -0.902 -0.567 c -0.239 -0.498 -0.029 -1.095 0.469 -1.334 c 1.862 -0.896 3.754 -0.896 5.619 0 c 0.498 0.239 0.708 0.836 0.469 1.334 c -0.239 0.499 -0.837 0.709 -1.334 0.469 c -1.309 -0.628 -2.58 -0.628 -3.889 0 C 38.195 26.4 38.047 26.432 37.902 26.432 z" style="stroke: none; stroke-width: 1; stroke-dasharray: none; stroke-linecap: butt; stroke-linejoin: miter; stroke-miterlimit: 10; fill: rgb(0,0,0); fill-rule: nonzero; opacity: 1;" transform=" matrix(1 0 0 1 0 0) " stroke-linecap="round" />
	<path d="M 46.938 26.432 c -0.373 0 -0.73 -0.209 -0.902 -0.567 c -0.239 -0.498 -0.029 -1.095 0.469 -1.334 c 1.863 -0.895 3.754 -0.896 5.619 0 c 0.498 0.239 0.708 0.836 0.469 1.334 c -0.238 0.497 -0.835 0.71 -1.334 0.469 c -1.31 -0.628 -2.581 -0.627 -3.889 0 C 47.23 26.4 47.083 26.432 46.938 26.432 z" style="stroke: none; stroke-width: 1; stroke-dasharray: none; stroke-linecap: butt; stroke-linejoin: miter; stroke-miterlimit: 10; fill: rgb(0,0,0); fill-rule: nonzero; opacity: 1;" transform=" matrix(1 0 0 1 0 0) " stroke-linecap="round" />
	<path d="M 44.995 37.017 c -1.296 0 -2.59 -0.6 -3.82 -1.798 c -0.396 -0.386 -0.404 -1.019 -0.019 -1.414 c 0.387 -0.396 1.019 -0.404 1.414 -0.019 c 1.699 1.655 3.153 1.653 4.863 -0.002 c 0.397 -0.384 1.03 -0.373 1.414 0.022 c 0.384 0.397 0.374 1.03 -0.023 1.414 C 47.587 36.418 46.29 37.017 44.995 37.017 z" style="stroke: none; stroke-width: 1; stroke-dasharray: none; stroke-linecap: butt; stroke-linejoin: miter; stroke-miterlimit: 10; fill: rgb(0,0,0); fill-rule: nonzero; opacity: 1;" transform=" matrix(1 0 0 1 0 0) " stroke-linecap="round" />
	<path d="M 60.554 44.996 l -0.536 -0.098 V 33.359 c 1.136 -0.21 2.001 -1.204 2.001 -2.4 v -6.093 c 0 -1.196 -0.865 -2.19 -2.001 -2.4 v -2.969 c 0 -8.281 -6.737 -15.018 -15.018 -15.018 c -8.281 0 -15.018 6.737 -15.018 15.018 v 2.969 c -1.136 0.21 -2 1.204 -2 2.4 v 6.093 c 0 1.196 0.865 2.19 2 2.4 v 11.539 l -0.536 0.098 c -3.374 0.617 -5.823 3.555 -5.823 6.984 v 12.833 c 0 1.562 1.271 2.832 2.832 2.832 h 11.879 L 45 74.312 l 6.666 -6.666 h 11.879 c 1.562 0 2.832 -1.271 2.832 -2.832 V 51.98 C 66.377 48.551 63.928 45.613 60.554 44.996 z M 55.053 43.991 c -1.654 -0.302 -2.855 -1.743 -2.855 -3.425 v -0.688 c 0.242 -0.211 0.49 -0.412 0.72 -0.64 c 0.221 -0.219 0.425 -0.454 0.633 -0.686 c 1.979 -0.382 3.625 -1.698 4.468 -3.469 v 9.45 L 55.053 43.991 z M 34.046 22.89 c 7.264 -1.055 11.958 -2.691 14.93 -5.221 c 2.034 2.271 3.991 3.794 6.959 5.437 l -0.533 6.383 c -0.129 1.523 -0.513 2.999 -1.144 4.385 c -0.333 0.732 -0.735 1.438 -1.195 2.098 c -0.163 0.234 -0.342 0.455 -0.52 0.678 c -0.061 0.003 -0.119 0.018 -0.181 0.018 h -4.438 c -0.553 0 -1 0.448 -1 1 s 0.447 1 1 1 h 2.628 c -1.154 0.941 -2.446 1.681 -3.863 2.193 c -1.089 0.394 -2.287 0.394 -3.376 0 c -4.862 -1.757 -8.283 -6.221 -8.713 -11.373 L 34.046 22.89 z M 39.735 41.329 c 0.903 0.566 1.872 1.043 2.897 1.413 c 0.763 0.276 1.565 0.414 2.368 0.414 s 1.604 -0.138 2.368 -0.414 c 1.023 -0.37 1.99 -0.843 2.897 -1.41 c 0.271 1.918 1.531 3.536 3.3 4.276 c -1.847 4.909 -4.715 8.952 -8.566 12.017 c -3.851 -3.065 -6.719 -7.109 -8.566 -12.017 C 38.204 44.868 39.465 43.249 39.735 41.329 z M 60.019 30.958 c 0 0.246 -0.2 0.445 -0.445 0.445 h -2.44 c 0.116 -0.576 0.212 -1.158 0.261 -1.748 l 0.438 -5.235 h 1.741 c 0.245 0 0.445 0.2 0.445 0.445 V 30.958 z M 45 6.478 c 7.178 0 13.018 5.84 13.018 13.018 v 2.924 H 57.97 c -0.038 -0.319 -0.22 -0.607 -0.511 -0.763 c -3.396 -1.819 -5.395 -3.408 -7.64 -6.069 c -0.182 -0.215 -0.445 -0.344 -0.727 -0.354 c -0.276 -0.008 -0.554 0.097 -0.751 0.297 c -2.688 2.729 -7.469 4.428 -15.504 5.507 c -0.503 0.068 -0.861 0.503 -0.855 1.004 v -2.547 C 31.982 12.318 37.822 6.478 45 6.478 z M 32 22.42 h -0.018 v -0.213 L 32 22.42 z M 29.982 24.866 c 0 -0.246 0.2 -0.445 0.445 -0.445 h 1.74 l 0.438 5.235 c 0.05 0.592 0.143 1.174 0.259 1.748 h -2.437 c -0.246 0 -0.445 -0.2 -0.445 -0.445 V 24.866 z M 31.982 33.404 h 1.432 c 0.879 2.511 2.396 4.749 4.388 6.488 v 0.674 c 0 1.682 -1.201 3.123 -2.855 3.425 l -2.965 0.542 V 33.404 z M 25.624 64.813 v -9.842 l 4.652 4.192 c 0.941 0.848 1.481 2.061 1.481 3.327 v 3.155 h -5.301 C 25.997 65.646 25.624 65.272 25.624 64.813 z M 50.838 65.646 L 45 71.483 l -5.837 -5.838 h -5.406 V 62.49 c 0 -1.832 -0.781 -3.586 -2.142 -4.813 l -5.991 -5.398 V 51.98 c 0 -2.464 1.759 -4.573 4.182 -5.017 l 4.682 -0.856 c 2.071 5.615 5.393 10.19 9.911 13.582 L 45 60.141 l 0.601 -0.45 c 4.518 -3.392 7.84 -7.967 9.911 -13.582 l 4.682 0.856 c 2.424 0.443 4.183 2.553 4.183 5.017 v 0.298 l -5.99 5.398 c -1.361 1.227 -2.143 2.981 -2.143 4.813 v 3.155 H 50.838 z M 63.545 65.646 h -5.301 V 62.49 c 0 -1.267 0.54 -2.479 1.48 -3.327 l 4.652 -4.192 v 9.843 C 64.377 65.272 64.004 65.646 63.545 65.646 z" style="stroke: none; stroke-width: 1; stroke-dasharray: none; stroke-linecap: butt; stroke-linejoin: miter; stroke-miterlimit: 10; fill: rgb(0,0,0); fill-rule: nonzero; opacity: 1;" transform=" matrix(1 0 0 1 0 0) " stroke-linecap="round" />
</g>
</g>
</svg>