<svg xmlns="http://www.w3.org/2000/svg" xmlns:xlink="http://www.w3.org/1999/xlink" version="1.1" width="256" height="256" viewBox="0 0 256 256" xml:space="preserve">
<desc>Created with Fabric.js 1.7.22</desc>
<defs>
</defs>
<g transform="translate(128 128) scale(0.72 0.72)" style="">
	<g style="stroke: none; stroke-width: 0; stroke-dasharray: none; stroke-linecap: butt; stroke-linejoin: miter; stroke-miterlimit: 10; fill: none; fill-rule: nonzero; opacity: 1;" transform="translate(-175.05 -175.05000000000004) scale(3.89 3.89)" >
	<path d="M 67.329 30.731 h 10.496 c 2.835 0 5.133 2.298 5.133 5.133 v 44.505 H 7.042 V 35.864 c 0 -2.835 2.298 -5.133 5.133 -5.133 H 67.329 z" style="stroke: none; stroke-width: 1; stroke-dasharray: none; stroke-linecap: butt; stroke-linejoin: miter; stroke-miterlimit: 10; fill: rgb(240,240,240); fill-rule: nonzero; opacity: 1;" transform=" matrix(1 0 0 1 0 0) " stroke-linecap="round" />
	<path d="M 65.287 34.248 h 11.778 c 1.337 0 2.421 1.084 2.421 2.421 v 43.7 H 10.514 v -43.7 c 0 -1.337 1.084 -2.421 2.421 -2.421 H 65.287 z" style="stroke: none; stroke-width: 1; stroke-dasharray: none; stroke-linecap: butt; stroke-linejoin: miter; stroke-miterlimit: 10; fill: rgb(249,249,249); fill-rule: nonzero; opacity: 1;" transform=" matrix(1 0 0 1 0 0) " stroke-linecap="round" />
	<path d="M 84.974 86.439 H 5.026 C 2.25 86.439 0 84.189 0 81.413 v -1.044 h 90 v 1.044 C 90 84.189 87.75 86.439 84.974 86.439 z" style="stroke: none; stroke-width: 1; stroke-dasharray: none; stroke-linecap: butt; stroke-linejoin: miter; stroke-miterlimit: 10; fill: rgb(204,204,204); fill-rule: nonzero; opacity: 1;" transform=" matrix(1 0 0 1 0 0) " stroke-linecap="round" />
	<rect x="40.05" y="80.37" rx="0" ry="0" width="9.89" height="4.12" style="stroke: none; stroke-width: 1; stroke-dasharray: none; stroke-linecap: butt; stroke-linejoin: miter; stroke-miterlimit: 10; fill: rgb(221,221,221); fill-rule: nonzero; opacity: 1;" transform=" matrix(1 0 0 1 0 0) "/>
	<path d="M 59.78 48.43 V 22.48 v -4.138 c 0 -8.163 -6.617 -14.78 -14.78 -14.78 h 0 c -8.163 0 -14.78 6.617 -14.78 14.78 v 4.138 V 48.43 H 59.78 z" style="stroke: none; stroke-width: 1; stroke-dasharray: none; stroke-linecap: butt; stroke-linejoin: miter; stroke-miterlimit: 10; fill: rgb(243,170,0); fill-rule: nonzero; opacity: 1;" transform=" matrix(1 0 0 1 0 0) " stroke-linecap="round" />
	<path d="M 55.41 45.206 c -2.245 -0.41 -3.876 -2.366 -3.876 -4.649 v -1.232 H 38.466 v 1.232 c 0 2.282 -1.631 4.238 -3.876 4.649 l -11.075 8.171 v 12.748 c 0 1.067 0.865 1.932 1.932 1.932 h 6.643 L 45 64.785 l 12.91 3.271 h 6.643 c 1.067 0 1.932 -0.865 1.932 -1.932 V 53.377 L 55.41 45.206 z" style="stroke: none; stroke-width: 1; stroke-dasharray: none; stroke-linecap: butt; stroke-linejoin: miter; stroke-miterlimit: 10; fill: rgb(242,194,178); fill-rule: nonzero; opacity: 1;" transform=" matrix(1 0 0 1 0 0) " stroke-linecap="round" />
	<path d="M 33.54 31.952 l -3.906 0 c -0.842 0 -1.524 -0.682 -1.524 -1.524 v -6.424 c 0 -0.842 0.682 -1.524 1.524 -1.524 h 2.805 C 34.857 25.512 35.066 28.678 33.54 31.952 z" style="stroke: none; stroke-width: 1; stroke-dasharray: none; stroke-linecap: butt; stroke-linejoin: miter; stroke-miterlimit: 10; fill: rgb(38,111,183); fill-rule: nonzero; opacity: 1;" transform=" matrix(1 0 0 1 0 0) " stroke-linecap="round" />
	<path d="M 57.561 22.48 h 2.805 c 0.842 0 1.524 0.682 1.524 1.524 v 6.424 c 0 0.842 -0.682 1.524 -1.524 1.524 l -3.907 0 C 54.447 28.602 55.281 25.482 57.561 22.48 z" style="stroke: none; stroke-width: 1; stroke-dasharray: none; stroke-linecap: butt; stroke-linejoin: miter; stroke-miterlimit: 10; fill: rgb(38,111,183); fill-rule: nonzero; opacity: 1;" transform=" matrix(1 0 0 1 0 0) " stroke-linecap="round" />
	<path d="M 57.639 21.55 l -0.62 7.416 c -0.146 1.75 -0.593 3.428 -1.296 4.972 c -0.38 0.835 -0.834 1.631 -1.356 2.379 c -0.522 0.748 -1.111 1.448 -1.76 2.091 c -1.522 1.506 -3.375 2.697 -5.468 3.453 l 0 0 c -1.382 0.499 -2.895 0.499 -4.277 0 l 0 0 c -5.53 -1.998 -9.39 -7.036 -9.88 -12.896 l -0.665 -7.952 c 8.088 -1.087 13.723 -2.827 16.959 -6.112 C 51.777 17.868 53.985 19.592 57.639 21.55 z" style="stroke: none; stroke-width: 1; stroke-dasharray: none; stroke-linecap: butt; stroke-linejoin: miter; stroke-miterlimit: 10; fill: rgb(250,206,191); fill-rule: nonzero; opacity: 1;" transform=" matrix(1 0 0 1 0 0) " stroke-linecap="round" />
	<path d="M 36.572 24.648 c 0.325 -0.486 0.779 -0.817 1.28 -1.058 c 0.503 -0.233 1.064 -0.355 1.626 -0.356 c 0.562 -0.001 1.123 0.121 1.626 0.354 c 0.501 0.24 0.955 0.572 1.279 1.06 c -0.582 0.055 -1.074 0.035 -1.549 0.035 l -1.357 -0.016 l -1.357 0.014 C 37.645 24.681 37.153 24.702 36.572 24.648 z" style="stroke: none; stroke-width: 1; stroke-dasharray: none; stroke-linecap: butt; stroke-linejoin: miter; stroke-miterlimit: 10; fill: rgb(220,102,65); fill-rule: nonzero; opacity: 1;" transform=" matrix(1 0 0 1 0 0) " stroke-linecap="round" />
	<path d="M 47.617 24.648 c 0.325 -0.486 0.779 -0.817 1.28 -1.058 c 0.503 -0.233 1.064 -0.355 1.626 -0.356 c 0.562 -0.001 1.123 0.121 1.626 0.354 c 0.501 0.24 0.955 0.572 1.279 1.06 c -0.582 0.055 -1.074 0.035 -1.549 0.035 l -1.357 -0.016 l -1.357 0.014 C 48.691 24.681 48.199 24.702 47.617 24.648 z" style="stroke: none; stroke-width: 1; stroke-dasharray: none; stroke-linecap: butt; stroke-linejoin: miter; stroke-miterlimit: 10; fill: rgb(220,102,65); fill-rule: nonzero; opacity: 1;" transform=" matrix(1 0 0 1 0 0) " stroke-linecap="round" />
	<path d="M 40.7 33.205 c 0.796 0.351 1.504 0.717 2.218 0.966 c 0.708 0.257 1.396 0.402 2.08 0.406 c 0.684 -0.007 1.372 -0.155 2.081 -0.411 c 0.713 -0.25 1.423 -0.613 2.221 -0.96 c -0.383 0.779 -0.964 1.441 -1.695 1.957 c -0.73 0.509 -1.65 0.845 -2.604 0.847 c -0.955 -0.002 -1.876 -0.335 -2.606 -0.845 C 41.663 34.646 41.082 33.984 40.7 33.205 z" style="stroke: none; stroke-width: 1; stroke-dasharray: none; stroke-linecap: butt; stroke-linejoin: miter; stroke-miterlimit: 10; fill: rgb(220,102,65); fill-rule: nonzero; opacity: 1;" transform=" matrix(1 0 0 1 0 0) " stroke-linecap="round" />
	<path d="M 52.763 38.22 h -4.68 c -0.396 0 -0.717 -0.321 -0.717 -0.717 c 0 -0.396 0.321 -0.717 0.717 -0.717 h 4.68 c 2.666 0 4.835 -2.169 4.835 -4.835 c 0 -0.396 0.321 -0.717 0.717 -0.717 c 0.396 0 0.717 0.321 0.717 0.717 C 59.031 35.408 56.22 38.22 52.763 38.22 z" style="stroke: none; stroke-width: 1; stroke-dasharray: none; stroke-linecap: butt; stroke-linejoin: miter; stroke-miterlimit: 10; fill: rgb(38,111,183); fill-rule: nonzero; opacity: 1;" transform=" matrix(1 0 0 1 0 0) " stroke-linecap="round" />
	<path d="M 61.21 46.266 l -5.8 -1.06 C 53.253 51.535 49.709 56.345 45 59.879 c -4.709 -3.534 -8.253 -8.344 -10.41 -14.673 l -5.8 1.06 c -3.055 0.558 -5.275 3.221 -5.275 6.327 v 0.784 l 6.665 6.006 c 1.216 1.096 1.91 2.655 1.91 4.292 v 4.381 h 5.407 L 45 75.56 l 7.503 -7.503 c 2.632 0 5.407 0 5.407 0 v -4.381 c 0 -1.637 0.694 -3.196 1.91 -4.292 l 6.665 -6.006 v -0.784 C 66.485 49.487 64.266 46.825 61.21 46.266 z" style="stroke: none; stroke-width: 1; stroke-dasharray: none; stroke-linecap: butt; stroke-linejoin: miter; stroke-miterlimit: 10; fill: rgb(38,111,183); fill-rule: nonzero; opacity: 1;" transform=" matrix(1 0 0 1 0 0) " stroke-linecap="round" />
</g>
</g>
</svg>