<svg xmlns="http://www.w3.org/2000/svg" xmlns:xlink="http://www.w3.org/1999/xlink" version="1.1" width="256" height="256" viewBox="0 0 256 256" xml:space="preserve">
<desc>Created with Fabric.js 1.7.22</desc>
<defs>
</defs>
<g transform="translate(128 128) scale(0.72 0.72)" style="">
	<g style="stroke: none; stroke-width: 0; stroke-dasharray: none; stroke-linecap: butt; stroke-linejoin: miter; stroke-miterlimit: 10; fill: none; fill-rule: nonzero; opacity: 1;" transform="translate(-175.05 -175.05000000000004) scale(3.89 3.89)" >
	<path d="M 67.329 25.44 h 10.496 c 2.835 0 5.133 2.298 5.133 5.133 v 44.505 H 7.042 V 30.572 c 0 -2.835 2.298 -5.133 5.133 -5.133 H 67.329 z" style="stroke: none; stroke-width: 1; stroke-dasharray: none; stroke-linecap: butt; stroke-linejoin: miter; stroke-miterlimit: 10; fill: rgb(240,240,240); fill-rule: nonzero; opacity: 1;" transform=" matrix(1 0 0 1 0 0) " stroke-linecap="round" />
	<path d="M 65.287 28.957 h 11.778 c 1.337 0 2.421 1.084 2.421 2.421 v 43.7 H 10.514 v -43.7 c 0 -1.337 1.084 -2.421 2.421 -2.421 H 65.287 z" style="stroke: none; stroke-width: 1; stroke-dasharray: none; stroke-linecap: butt; stroke-linejoin: miter; stroke-miterlimit: 10; fill: rgb(249,249,249); fill-rule: nonzero; opacity: 1;" transform=" matrix(1 0 0 1 0 0) " stroke-linecap="round" />
	<path d="M 84.974 81.148 H 5.026 C 2.25 81.148 0 78.897 0 76.122 v -1.044 h 90 v 1.044 C 90 78.897 87.75 81.148 84.974 81.148 z" style="stroke: none; stroke-width: 1; stroke-dasharray: none; stroke-linecap: butt; stroke-linejoin: miter; stroke-miterlimit: 10; fill: rgb(204,204,204); fill-rule: nonzero; opacity: 1;" transform=" matrix(1 0 0 1 0 0) " stroke-linecap="round" />
	<rect x="40.05" y="75.08" rx="0" ry="0" width="9.89" height="4.12" style="stroke: none; stroke-width: 1; stroke-dasharray: none; stroke-linecap: butt; stroke-linejoin: miter; stroke-miterlimit: 10; fill: rgb(221,221,221); fill-rule: nonzero; opacity: 1;" transform=" matrix(1 0 0 1 0 0) "/>
	<path d="M 35.794 31.308 H 32.66 c -0.675 0 -1.223 -0.548 -1.223 -1.223 v -5.156 c 0 -0.675 0.548 -1.223 1.223 -1.223 h 2.251 C 36.233 26.054 36.608 28.574 35.794 31.308 z" style="stroke: none; stroke-width: 1; stroke-dasharray: none; stroke-linecap: butt; stroke-linejoin: miter; stroke-miterlimit: 10; fill: rgb(38,111,183); fill-rule: nonzero; opacity: 1;" transform=" matrix(1 0 0 1 0 0) " stroke-linecap="round" />
	<path d="M 54.188 31.308 h 3.136 c 0.675 0 1.223 -0.548 1.223 -1.223 v -5.156 c 0 -0.675 -0.548 -1.223 -1.223 -1.223 h -2.251 C 53.066 26.24 52.771 28.774 54.188 31.308 z" style="stroke: none; stroke-width: 1; stroke-dasharray: none; stroke-linecap: butt; stroke-linejoin: miter; stroke-miterlimit: 10; fill: rgb(38,111,183); fill-rule: nonzero; opacity: 1;" transform=" matrix(1 0 0 1 0 0) " stroke-linecap="round" />
	<path d="M 66.163 47.659 v 5.671 v 6.616 c 0 0.969 -0.852 1.754 -1.904 1.754 h -6.814 l -12.454 -3.569 L 32.494 61.7 h -6.77 c -1.051 0 -1.904 -0.785 -1.904 -1.754 V 53.33 v -5.671 l 11.893 -6.977 c 1.691 -0.66 2.839 -2.2 2.839 -3.951 l 0.036 -1.48 h 12.808 l 0.034 1.48 c 0 1.751 1.148 3.291 2.839 3.951 L 66.163 47.659 z" style="stroke: none; stroke-width: 1; stroke-dasharray: none; stroke-linecap: butt; stroke-linejoin: miter; stroke-miterlimit: 10; fill: rgb(242,194,178); fill-rule: nonzero; opacity: 1;" transform=" matrix(1 0 0 1 0 0) " stroke-linecap="round" />
	<path d="M 53.407 11.85 L 34.83 21.736 l 0.534 7.176 c 0.182 2.171 1.015 4.307 2.017 6.454 c 0.254 0.588 0.54 0.948 1.113 1.781 c 1.029 1.379 2.295 1.765 4.088 2.365 c 0.949 0.338 1.683 0.323 2.409 0.322 c 0.727 0 1.46 0.016 2.409 -0.322 c 1.793 -0.6 3.059 -0.985 4.088 -2.365 c 0.573 -0.833 0.859 -1.193 1.113 -1.781 c 1.002 -2.147 1.835 -4.283 2.017 -6.454 l 0.534 -7.176 L 53.407 11.85 z" style="stroke: none; stroke-width: 1; stroke-dasharray: none; stroke-linecap: butt; stroke-linejoin: miter; stroke-miterlimit: 10; fill: rgb(250,206,191); fill-rule: nonzero; opacity: 1;" transform=" matrix(1 0 0 1 0 0) " stroke-linecap="round" />
	<path d="M 51.223 36.35 h -3.757 c -0.325 0 -0.587 -0.263 -0.587 -0.587 c 0 -0.324 0.263 -0.587 0.587 -0.587 h 3.757 c 2.133 0 3.868 -1.735 3.868 -3.868 c 0 -0.324 0.263 -0.587 0.587 -0.587 c 0.325 0 0.587 0.263 0.587 0.587 C 56.265 34.088 54.003 36.35 51.223 36.35 z" style="stroke: none; stroke-width: 1; stroke-dasharray: none; stroke-linecap: butt; stroke-linejoin: miter; stroke-miterlimit: 10; fill: rgb(38,111,183); fill-rule: nonzero; opacity: 1;" transform=" matrix(1 0 0 1 0 0) " stroke-linecap="round" />
	<path d="M 38.271 25.495 c 0.559 -0.82 1.536 -1.236 2.518 -1.244 c 0.492 -0.001 0.982 0.11 1.418 0.317 c 0.435 0.213 0.825 0.507 1.1 0.927 c -0.502 0.017 -0.928 -0.021 -1.34 -0.035 c -0.409 -0.021 -0.794 -0.033 -1.179 -0.035 c -0.385 0 -0.77 0.012 -1.179 0.033 C 39.198 25.472 38.772 25.51 38.271 25.495 z" style="stroke: none; stroke-width: 1; stroke-dasharray: none; stroke-linecap: butt; stroke-linejoin: miter; stroke-miterlimit: 10; fill: rgb(220,102,65); fill-rule: nonzero; opacity: 1;" transform=" matrix(1 0 0 1 0 0) " stroke-linecap="round" />
	<path d="M 45.336 25.46 c 0.559 -0.82 1.536 -1.236 2.518 -1.244 c 0.492 -0.001 0.982 0.11 1.418 0.317 c 0.435 0.213 0.825 0.507 1.1 0.927 c -0.502 0.017 -0.928 -0.021 -1.34 -0.035 c -0.409 -0.021 -0.794 -0.033 -1.179 -0.035 c -0.385 0 -0.77 0.012 -1.179 0.033 C 46.264 25.437 45.837 25.475 45.336 25.46 z" style="stroke: none; stroke-width: 1; stroke-dasharray: none; stroke-linecap: butt; stroke-linejoin: miter; stroke-miterlimit: 10; fill: rgb(220,102,65); fill-rule: nonzero; opacity: 1;" transform=" matrix(1 0 0 1 0 0) " stroke-linecap="round" />
	<path d="M 41.485 32.287 c 0.65 0.285 1.228 0.583 1.81 0.786 c 0.577 0.209 1.138 0.327 1.695 0.33 c 0.557 -0.006 1.118 -0.126 1.696 -0.334 c 0.582 -0.203 1.161 -0.499 1.813 -0.781 c -0.311 0.636 -0.785 1.176 -1.382 1.598 c -0.595 0.416 -1.346 0.69 -2.125 0.692 c -0.779 -0.001 -1.531 -0.274 -2.127 -0.69 C 42.269 33.464 41.795 32.923 41.485 32.287 z" style="stroke: none; stroke-width: 1; stroke-dasharray: none; stroke-linecap: butt; stroke-linejoin: miter; stroke-miterlimit: 10; fill: rgb(220,102,65); fill-rule: nonzero; opacity: 1;" transform=" matrix(1 0 0 1 0 0) " stroke-linecap="round" />
	<path d="M 55.423 23.856 c 2.47 -11.026 -3.4 -15.004 -10.295 -15.004 h 0 c -5.992 0 -12.183 4.374 -11.918 12.981 c 8.594 0.772 16.911 -2.498 20.198 -9.984 C 50.121 18.023 52.559 21.655 55.423 23.856 z" style="stroke: none; stroke-width: 1; stroke-dasharray: none; stroke-linecap: butt; stroke-linejoin: miter; stroke-miterlimit: 10; fill: rgb(243,170,0); fill-rule: nonzero; opacity: 1;" transform=" matrix(1 0 0 1 0 0) " stroke-linecap="round" />
	<path d="M 35.162 26.789 c -0.718 -2.713 -0.979 -5.015 -0.349 -6.516 h 1.499 C 35.458 21.992 35.075 24.164 35.162 26.789 z" style="stroke: none; stroke-width: 1; stroke-dasharray: none; stroke-linecap: butt; stroke-linejoin: miter; stroke-miterlimit: 10; fill: rgb(243,170,0); fill-rule: nonzero; opacity: 1;" transform=" matrix(1 0 0 1 0 0) " stroke-linecap="round" />
	<path d="M 54.769 26.894 c 0.718 -2.713 1.103 -5.12 0.473 -6.622 h -1.499 C 54.597 21.992 54.857 24.269 54.769 26.894 z" style="stroke: none; stroke-width: 1; stroke-dasharray: none; stroke-linecap: butt; stroke-linejoin: miter; stroke-miterlimit: 10; fill: rgb(243,170,0); fill-rule: nonzero; opacity: 1;" transform=" matrix(1 0 0 1 0 0) " stroke-linecap="round" />
	<path d="M 60.965 41.914 l -5.715 -0.963 c -0.342 -0.058 -0.67 -0.149 -0.98 -0.27 l 0.002 -0.004 c -6.167 6.095 -12.353 6.114 -18.559 0 l 0.002 0.004 c -0.31 0.121 -0.638 0.212 -0.98 0.27 l -5.715 0.963 c -3.011 0.507 -5.198 2.924 -5.198 5.745 v 5.671 h 5.206 c 1.914 0 3.464 1.429 3.462 3.193 c -0.003 2.265 -0.005 4.944 0.006 5.177 h 4.627 l 7.88 7.88 l 7.88 -7.88 h 4.566 c 0.01 -0.233 0.009 -2.912 0.006 -5.177 C 57.449 54.759 59 53.33 60.913 53.33 h 5.206 h 0.044 v -5.671 C 66.163 44.839 63.976 42.421 60.965 41.914 z" style="stroke: none; stroke-width: 1; stroke-dasharray: none; stroke-linecap: butt; stroke-linejoin: miter; stroke-miterlimit: 10; fill: rgb(38,111,183); fill-rule: nonzero; opacity: 1;" transform=" matrix(1 0 0 1 0 0) " stroke-linecap="round" />
</g>
</g>
</svg>