<svg xmlns="http://www.w3.org/2000/svg" xmlns:xlink="http://www.w3.org/1999/xlink" version="1.1" width="256" height="256" viewBox="0 0 256 256" xml:space="preserve">
<desc>Created with Fabric.js 1.7.22</desc>
<defs>
</defs>
<g transform="translate(128 128) scale(0.72 0.72)" style="">
	<g style="stroke: none; stroke-width: 0; stroke-dasharray: none; stroke-linecap: butt; stroke-linejoin: miter; stroke-miterlimit: 10; fill: none; fill-rule: nonzero; opacity: 1;" transform="translate(-175.05 -175.05000000000004) scale(3.89 3.89)" >
	<path d="M 18.842 47.613 C 8.932 19.07 29.162 1 45 1 s 36.068 18.07 26.158 46.613" style="stroke: none; stroke-width: 1; stroke-dasharray: none; stroke-linecap: butt; stroke-linejoin: miter; stroke-miterlimit: 10; fill: rgb(165,106,67); fill-rule: nonzero; opacity: 1;" transform=" matrix(1 0 0 1 0 0) " stroke-linecap="round" />
	<path d="M 45 89 c -2.039 0 -4.107 -0.616 -6.189 -1.523 c -5.938 -2.546 -10.7 -7.659 -14.875 -14.056 c -3.811 -5.911 -4.809 -22.525 -4.809 -22.525 s -1.036 -9.746 -0.227 -13.785 C 21.889 22.299 31.938 15.5 45 15.5 c 12.961 0 23.111 6.799 26.101 21.612 c 0.809 4.039 -0.227 13.785 -0.227 13.785 s -0.998 16.614 -4.809 22.525 c -4.175 6.397 -8.938 11.51 -14.875 14.056 C 49.107 88.384 47.318 89 45 89 z" style="stroke: none; stroke-width: 1; stroke-dasharray: none; stroke-linecap: butt; stroke-linejoin: miter; stroke-miterlimit: 10; fill: rgb(253,215,173); fill-rule: nonzero; opacity: 1;" transform=" matrix(1 0 0 1 0 0) " stroke-linecap="round" />
	<path d="M 70.117 58.325 c 2.02 -3.579 4.535 -5.228 5.088 -10.103 c 0.346 -4.048 -2.303 -4.745 -4.151 0.699" style="stroke: none; stroke-width: 1; stroke-dasharray: none; stroke-linecap: butt; stroke-linejoin: miter; stroke-miterlimit: 10; fill: rgb(249,199,149); fill-rule: nonzero; opacity: 1;" transform=" matrix(1 0 0 1 0 0) " stroke-linecap="round" />
	<path d="M 19.883 58.325 c -2.559 -4.174 -4.535 -5.228 -5.088 -10.103 c -0.346 -4.048 2.303 -4.745 4.151 0.699" style="stroke: none; stroke-width: 1; stroke-dasharray: none; stroke-linecap: butt; stroke-linejoin: miter; stroke-miterlimit: 10; fill: rgb(249,199,149); fill-rule: nonzero; opacity: 1;" transform=" matrix(1 0 0 1 0 0) " stroke-linecap="round" />
	<path d="M 60.939 45.855 c -1.143 -0.164 -2.171 -0.392 -3.175 -0.505 c -0.999 -0.125 -1.951 -0.156 -2.876 -0.053 c -0.926 0.099 -1.83 0.34 -2.748 0.717 c -0.926 0.364 -1.839 0.871 -2.875 1.381 c 0.418 -1.076 1.146 -2.001 2.076 -2.736 c 0.93 -0.73 2.104 -1.225 3.323 -1.349 c 1.218 -0.136 2.444 0.077 3.518 0.529 C 59.255 44.302 60.205 44.966 60.939 45.855 z" style="stroke: none; stroke-width: 1; stroke-dasharray: none; stroke-linecap: butt; stroke-linejoin: miter; stroke-miterlimit: 10; fill: rgb(0,0,0); fill-rule: nonzero; opacity: 1;" transform=" matrix(1 0 0 1 0 0) " stroke-linecap="round" />
	<path d="M 40.167 47.395 c -1.034 -0.512 -1.947 -1.02 -2.873 -1.384 c -0.917 -0.376 -1.822 -0.618 -2.749 -0.714 c -0.925 -0.1 -1.877 -0.069 -2.875 0.055 c -1.003 0.114 -2.031 0.341 -3.176 0.503 c 0.733 -0.891 1.683 -1.556 2.757 -2.019 c 1.074 -0.452 2.3 -0.665 3.518 -0.526 c 1.219 0.127 2.391 0.622 3.321 1.351 C 39.019 45.396 39.747 46.32 40.167 47.395 z" style="stroke: none; stroke-width: 1; stroke-dasharray: none; stroke-linecap: butt; stroke-linejoin: miter; stroke-miterlimit: 10; fill: rgb(0,0,0); fill-rule: nonzero; opacity: 1;" transform=" matrix(1 0 0 1 0 0) " stroke-linecap="round" />
	<path d="M 46.524 54.259 c 0.638 1.114 1.119 2.223 1.601 3.321 c 0.472 1.1 0.92 2.193 1.351 3.295 l 0.003 0.008 c 0.014 0.037 0.027 0.079 0.037 0.117 c 0.11 0.449 0.105 1.131 -0.278 1.652 c -0.38 0.515 -0.836 0.702 -1.207 0.819 c -0.761 0.223 -1.41 0.206 -2.046 0.161 c -1.263 -0.121 -2.436 -0.445 -3.569 -0.984 c 1.219 -0.284 2.41 -0.38 3.516 -0.578 c 0.543 -0.091 1.09 -0.207 1.45 -0.373 c 0.178 -0.08 0.283 -0.176 0.234 -0.163 c -0.035 0.03 -0.021 0.077 -0.039 -0.048 l 0.04 0.124 c -0.463 -1.155 -0.804 -2.361 -1.009 -3.592 C 46.416 56.787 46.334 55.531 46.524 54.259 z" style="stroke: none; stroke-width: 1; stroke-dasharray: none; stroke-linecap: butt; stroke-linejoin: miter; stroke-miterlimit: 10; fill: rgb(0,0,0); fill-rule: nonzero; opacity: 1;" transform=" matrix(1 0 0 1 0 0) " stroke-linecap="round" />
	<path d="M 34.838 69.078 c 1.653 0.301 3.222 0.624 4.788 0.842 c 1.564 0.218 3.115 0.327 4.664 0.33 c 1.549 -0.007 3.1 -0.113 4.663 -0.333 c 1.565 -0.218 3.134 -0.54 4.788 -0.839 c -1.308 1.057 -2.824 1.83 -4.431 2.358 c -1.607 0.529 -3.312 0.818 -5.021 0.813 c -1.709 0.001 -3.414 -0.286 -5.02 -0.816 C 37.663 70.905 36.147 70.133 34.838 69.078 z" style="stroke: none; stroke-width: 1; stroke-dasharray: none; stroke-linecap: butt; stroke-linejoin: miter; stroke-miterlimit: 10; fill: rgb(0,0,0); fill-rule: nonzero; opacity: 1;" transform=" matrix(1 0 0 1 0 0) " stroke-linecap="round" />
	<path d="M 74.337 44.16 c -0.257 -0.055 -0.651 -0.071 -1.117 0.106 c 3.09 -11.613 1.514 -22.559 -4.593 -31.143 C 62.957 5.151 53.686 0 45.007 0 c -8.678 0 -17.95 5.151 -23.621 13.122 c -6.108 8.587 -7.684 19.535 -4.591 31.15 c -0.474 -0.183 -0.873 -0.167 -1.131 -0.112 c -1.059 0.221 -2.104 1.456 -1.862 4.282 c 0.424 3.74 1.665 5.441 3.235 7.595 c 0.572 0.785 1.219 1.676 1.896 2.765 c 0.714 5.251 1.994 11.788 4.173 15.167 c 4.794 7.345 9.805 12.063 15.314 14.426 C 40.936 89.49 43.029 90 45.007 90 c 2.413 0 4.311 -0.614 6.584 -1.604 c 5.514 -2.364 10.524 -7.084 15.321 -14.433 c 2.184 -3.387 3.464 -9.955 4.176 -15.206 c 0.563 -0.972 1.171 -1.816 1.762 -2.628 c 1.51 -2.079 2.936 -4.042 3.352 -7.715 C 76.44 45.616 75.395 44.381 74.337 44.16 z M 23.016 14.282 C 28.323 6.821 36.955 2 45.007 2 s 16.684 4.821 21.99 12.282 c 4.877 6.855 6.676 15.345 5.326 24.491 c -0.052 -0.688 -0.128 -1.32 -0.235 -1.858 C 69.213 22.669 59.343 14.5 45.007 14.5 c -14.546 0 -24.164 7.96 -27.082 22.416 c -0.108 0.537 -0.183 1.168 -0.235 1.855 C 16.341 29.625 18.14 21.137 23.016 14.282 z M 15.792 48.245 c -0.127 -1.486 0.227 -2.076 0.25 -2.125 c 0.188 0.023 1.063 0.635 1.936 3.171 c 0.082 0.95 0.148 1.578 0.157 1.665 c 0.011 0.191 0.098 1.575 0.299 3.601 C 17.055 52.659 16.135 51.271 15.792 48.245 z M 65.233 72.875 c -4.57 7.004 -9.291 11.479 -14.437 13.686 C 48.702 87.473 47.083 88 45.007 88 c -1.694 0 -3.534 -0.457 -5.795 -1.441 c -5.14 -2.204 -9.86 -6.68 -14.429 -13.679 c -3.625 -5.623 -4.642 -21.88 -4.655 -22.089 c -0.01 -0.096 -1.011 -9.641 -0.242 -13.481 C 22.595 23.89 31.517 16.5 45.007 16.5 c 13.491 0 22.412 7.39 25.12 20.808 c 0.77 3.842 -0.231 13.387 -0.245 13.529 C 69.872 51 68.858 67.254 65.233 72.875 z M 74.212 48.218 c -0.324 2.852 -1.37 4.498 -2.623 6.241 c 0.192 -1.955 0.275 -3.282 0.285 -3.457 c 0.011 -0.1 0.08 -0.759 0.165 -1.753 c 0.867 -2.496 1.731 -3.106 1.848 -3.146 C 73.981 46.169 74.336 46.759 74.212 48.218 z" style="stroke: none; stroke-width: 1; stroke-dasharray: none; stroke-linecap: butt; stroke-linejoin: miter; stroke-miterlimit: 10; fill: rgb(0,0,0); fill-rule: nonzero; opacity: 1;" transform=" matrix(1 0 0 1 0 0) " stroke-linecap="round" />
	<path d="M 63.498 42.66 c -0.164 0 -0.33 -0.04 -0.483 -0.125 c -0.136 -0.075 -0.272 -0.147 -0.41 -0.217 c -0.492 -0.25 -0.689 -0.851 -0.439 -1.344 c 0.249 -0.492 0.849 -0.689 1.344 -0.44 c 0.159 0.081 0.317 0.165 0.475 0.251 c 0.483 0.268 0.658 0.876 0.391 1.359 C 64.191 42.474 63.85 42.66 63.498 42.66 z" style="stroke: none; stroke-width: 1; stroke-dasharray: none; stroke-linecap: butt; stroke-linejoin: miter; stroke-miterlimit: 10; fill: rgb(0,0,0); fill-rule: nonzero; opacity: 1;" transform=" matrix(1 0 0 1 0 0) " stroke-linecap="round" />
	<path d="M 53.406 41.603 c -0.431 0 -0.827 -0.279 -0.958 -0.712 c -0.159 -0.529 0.141 -1.086 0.67 -1.246 c 0.34 -0.103 0.685 -0.192 1.031 -0.269 c 0.536 -0.122 1.073 0.221 1.192 0.761 c 0.119 0.539 -0.222 1.073 -0.761 1.192 c -0.298 0.066 -0.594 0.143 -0.887 0.231 C 53.599 41.588 53.501 41.603 53.406 41.603 z M 59.294 41.206 c -0.052 0 -0.105 -0.004 -0.158 -0.013 c -0.303 -0.048 -0.605 -0.085 -0.91 -0.11 c -0.55 -0.046 -0.959 -0.529 -0.913 -1.08 c 0.045 -0.549 0.514 -0.963 1.079 -0.914 c 0.354 0.029 0.707 0.072 1.059 0.129 c 0.546 0.087 0.917 0.6 0.83 1.145 C 60.202 40.855 59.777 41.206 59.294 41.206 z" style="stroke: none; stroke-width: 1; stroke-dasharray: none; stroke-linecap: butt; stroke-linejoin: miter; stroke-miterlimit: 10; fill: rgb(0,0,0); fill-rule: nonzero; opacity: 1;" transform=" matrix(1 0 0 1 0 0) " stroke-linecap="round" />
	<path d="M 49.421 43.591 c -0.308 0 -0.61 -0.141 -0.807 -0.408 c -0.327 -0.445 -0.231 -1.071 0.213 -1.398 c 0.146 -0.107 0.292 -0.21 0.44 -0.311 c 0.456 -0.309 1.078 -0.19 1.389 0.268 c 0.31 0.457 0.189 1.079 -0.268 1.389 c -0.127 0.086 -0.252 0.175 -0.376 0.266 C 49.834 43.528 49.626 43.591 49.421 43.591 z" style="stroke: none; stroke-width: 1; stroke-dasharray: none; stroke-linecap: butt; stroke-linejoin: miter; stroke-miterlimit: 10; fill: rgb(0,0,0); fill-rule: nonzero; opacity: 1;" transform=" matrix(1 0 0 1 0 0) " stroke-linecap="round" />
	<path d="M 26.344 42.66 c -0.352 0 -0.692 -0.186 -0.875 -0.515 c -0.268 -0.483 -0.094 -1.092 0.389 -1.36 c 0.157 -0.087 0.315 -0.17 0.474 -0.251 c 0.494 -0.249 1.094 -0.054 1.345 0.438 c 0.25 0.492 0.054 1.094 -0.438 1.345 c -0.137 0.069 -0.274 0.142 -0.409 0.217 C 26.675 42.619 26.508 42.66 26.344 42.66 z" style="stroke: none; stroke-width: 1; stroke-dasharray: none; stroke-linecap: butt; stroke-linejoin: miter; stroke-miterlimit: 10; fill: rgb(0,0,0); fill-rule: nonzero; opacity: 1;" transform=" matrix(1 0 0 1 0 0) " stroke-linecap="round" />
	<path d="M 36.437 41.603 c -0.096 0 -0.192 -0.014 -0.289 -0.043 c -0.292 -0.088 -0.589 -0.165 -0.887 -0.231 c -0.539 -0.119 -0.88 -0.653 -0.761 -1.192 c 0.119 -0.539 0.65 -0.882 1.192 -0.761 c 0.347 0.077 0.691 0.167 1.032 0.269 c 0.529 0.159 0.829 0.717 0.669 1.246 C 37.264 41.323 36.867 41.603 36.437 41.603 z M 30.547 41.206 c -0.482 0 -0.907 -0.35 -0.986 -0.842 c -0.087 -0.545 0.284 -1.058 0.83 -1.145 c 0.352 -0.056 0.706 -0.1 1.059 -0.129 c 0.548 -0.049 1.034 0.363 1.08 0.914 s -0.363 1.034 -0.914 1.08 c -0.304 0.025 -0.607 0.063 -0.91 0.11 C 30.653 41.202 30.6 41.206 30.547 41.206 z" style="stroke: none; stroke-width: 1; stroke-dasharray: none; stroke-linecap: butt; stroke-linejoin: miter; stroke-miterlimit: 10; fill: rgb(0,0,0); fill-rule: nonzero; opacity: 1;" transform=" matrix(1 0 0 1 0 0) " stroke-linecap="round" />
	<path d="M 40.421 43.591 c -0.206 0 -0.414 -0.063 -0.593 -0.195 c -0.124 -0.091 -0.249 -0.18 -0.375 -0.265 c -0.458 -0.31 -0.577 -0.932 -0.268 -1.389 c 0.31 -0.458 0.933 -0.577 1.389 -0.268 c 0.149 0.101 0.296 0.205 0.441 0.312 c 0.444 0.328 0.539 0.954 0.211 1.398 C 41.03 43.451 40.728 43.591 40.421 43.591 z" style="stroke: none; stroke-width: 1; stroke-dasharray: none; stroke-linecap: butt; stroke-linejoin: miter; stroke-miterlimit: 10; fill: rgb(0,0,0); fill-rule: nonzero; opacity: 1;" transform=" matrix(1 0 0 1 0 0) " stroke-linecap="round" />
	<path d="M 80.082 66.506 l -1.854 -2.938 c -0.017 -0.027 -0.046 -0.041 -0.065 -0.065 c -0.053 -0.069 -0.112 -0.128 -0.181 -0.181 c -0.044 -0.034 -0.085 -0.064 -0.133 -0.09 c -0.074 -0.04 -0.152 -0.063 -0.235 -0.084 c -0.039 -0.01 -0.072 -0.035 -0.112 -0.04 c -0.02 -0.002 -0.038 0.007 -0.057 0.006 c -0.022 -0.001 -0.041 -0.013 -0.063 -0.013 c -0.067 0 -0.126 0.026 -0.19 0.038 c -0.054 0.011 -0.108 0.013 -0.159 0.032 c -0.108 0.041 -0.202 0.102 -0.288 0.175 c -0.017 0.015 -0.04 0.019 -0.057 0.035 l -0.013 0.012 c 0 0 0 0 0 0 l -2.334 2.254 c -0.397 0.384 -0.408 1.018 -0.025 1.414 c 0.385 0.398 1.019 0.407 1.414 0.025 l 0.421 -0.406 c -0.459 2.814 -1.58 6.108 -3.187 8.25 c -0.331 0.442 -0.242 1.069 0.199 1.4 c 0.181 0.135 0.391 0.2 0.6 0.2 c 0.304 0 0.604 -0.138 0.801 -0.399 c 1.826 -2.433 3.027 -5.976 3.537 -9.02 l 0.29 0.46 c 0.19 0.302 0.515 0.467 0.847 0.467 c 0.183 0 0.367 -0.05 0.532 -0.154 C 80.237 67.59 80.377 66.973 80.082 66.506 z" style="stroke: none; stroke-width: 1; stroke-dasharray: none; stroke-linecap: butt; stroke-linejoin: miter; stroke-miterlimit: 10; fill: rgb(0,0,0); fill-rule: nonzero; opacity: 1;" transform=" matrix(1 0 0 1 0 0) " stroke-linecap="round" />
	<path d="M 17.036 74.932 c -1.607 -2.142 -2.728 -5.436 -3.187 -8.25 l 0.42 0.406 c 0.398 0.384 1.031 0.373 1.414 -0.025 c 0.384 -0.396 0.373 -1.03 -0.024 -1.414 l -2.347 -2.267 c -0.019 -0.018 -0.045 -0.023 -0.066 -0.04 c -0.084 -0.07 -0.174 -0.13 -0.278 -0.169 c -0.053 -0.02 -0.109 -0.022 -0.165 -0.033 c -0.063 -0.012 -0.12 -0.038 -0.186 -0.038 c -0.022 0 -0.041 0.011 -0.062 0.013 c -0.02 0.001 -0.038 -0.008 -0.057 -0.006 c -0.04 0.005 -0.073 0.03 -0.112 0.04 c -0.083 0.02 -0.161 0.044 -0.235 0.084 c -0.049 0.026 -0.09 0.056 -0.134 0.09 c -0.069 0.053 -0.127 0.112 -0.18 0.18 c -0.019 0.025 -0.049 0.039 -0.066 0.066 l -1.854 2.938 c -0.295 0.467 -0.155 1.084 0.312 1.379 c 0.166 0.104 0.35 0.154 0.533 0.154 c 0.332 0 0.657 -0.165 0.847 -0.467 l 0.29 -0.459 c 0.51 3.044 1.711 6.587 3.537 9.02 c 0.196 0.262 0.497 0.399 0.801 0.399 c 0.208 0 0.419 -0.065 0.599 -0.2 C 17.278 76.001 17.368 75.374 17.036 74.932 z" style="stroke: none; stroke-width: 1; stroke-dasharray: none; stroke-linecap: butt; stroke-linejoin: miter; stroke-miterlimit: 10; fill: rgb(0,0,0); fill-rule: nonzero; opacity: 1;" transform=" matrix(1 0 0 1 0 0) " stroke-linecap="round" />
</g>
</g>
</svg>