<svg xmlns="http://www.w3.org/2000/svg" xmlns:xlink="http://www.w3.org/1999/xlink" version="1.1" width="256" height="256" viewBox="0 0 256 256" xml:space="preserve">
<desc>Created with Fabric.js 1.7.22</desc>
<defs>
</defs>
<g transform="translate(128 128) scale(0.72 0.72)" style="">
	<g style="stroke: none; stroke-width: 0; stroke-dasharray: none; stroke-linecap: butt; stroke-linejoin: miter; stroke-miterlimit: 10; fill: none; fill-rule: nonzero; opacity: 1;" transform="translate(-175.05 -175.05000000000004) scale(3.89 3.89)" >
	<path d="M 73.482 36.148 c 3.146 1.025 6.662 -0.347 8.235 -3.38 c 1.75 -3.375 0.432 -7.529 -2.943 -9.279 c -1.728 -0.896 -3.661 -0.988 -5.37 -0.411 l -5.707 6.905 L 73.482 36.148 z" style="stroke: none; stroke-width: 1; stroke-dasharray: none; stroke-linecap: butt; stroke-linejoin: miter; stroke-miterlimit: 10; fill: rgb(146,94,60); fill-rule: nonzero; opacity: 1;" transform=" matrix(1 0 0 1 0 0) " stroke-linecap="round" />
	<path d="M 67.428 53.264 c -1.793 2.574 -3.941 4.755 -6.456 6.282 c -2.285 1.41 1.503 11.273 4.978 18.657 c 2.599 4.962 5.309 8.858 8.176 11.275 H 33.658 c 2.73 -1.939 3.426 -3.244 3.422 -6.98 c -0.114 -5.805 -5.728 -16.277 -9.396 -15.167 c -9.689 1.198 -12.082 0.482 -14.094 -1.879 c -1.152 -1.593 -0.858 -3.77 0 -6.174 c 0.317 -1.033 -2.346 -0.801 -2.416 -2.013 c -0.092 -2.007 2.548 -2.146 4.161 -2.953 c -1.837 -0.1 -5.156 -0.86 -4.698 -2.282 c 0.468 -1.195 2.251 -3.859 0.671 -4.027 c -1.888 -0.253 -4.465 -1.731 -4.161 -3.087 c 0.372 -1.818 7.015 -6.587 7.114 -11.409 c 0.132 -10.116 1.718 -16.325 4.698 -21.342 c 0.619 -0.96 1.302 -1.861 2.041 -2.701 C 55.009 8.2 78.032 16.339 67.428 53.264 z" style="stroke: none; stroke-width: 1; stroke-dasharray: none; stroke-linecap: butt; stroke-linejoin: miter; stroke-miterlimit: 10; fill: rgb(253,215,173); fill-rule: nonzero; opacity: 1;" transform=" matrix(1 0 0 1 0 0) " stroke-linecap="round" />
	<path d="M 44.507 32.421 C 40.78 23.086 18.718 12.947 21.001 9.464 L 21 9.464 C 34.263 -5.612 65.66 -1.358 73.359 21.666 c 2.49 7.06 0.727 22.04 -5.931 31.599 c -7.527 -0.844 -15.383 -5.838 -16.315 -12.36 C 55.054 34.885 50.813 28.141 44.507 32.421 z" style="stroke: none; stroke-width: 1; stroke-dasharray: none; stroke-linecap: butt; stroke-linejoin: miter; stroke-miterlimit: 10; fill: rgb(165,106,67); fill-rule: nonzero; opacity: 1;" transform=" matrix(1 0 0 1 0 0) " stroke-linecap="round" />
	<path d="M 17.651 29.498 c -0.077 -0.797 0.128 -1.629 0.809 -2.301 c 0.689 -0.683 1.912 -0.859 2.735 -0.556 c 0.858 0.264 1.505 0.763 2.024 1.324 c 0.504 0.58 0.897 1.23 1.102 2.016 c -0.795 -0.192 -1.432 -0.493 -2.045 -0.758 c -0.605 -0.266 -1.165 -0.517 -1.649 -0.666 c -0.502 -0.152 -0.81 -0.18 -1.283 -0.067 C 18.86 28.618 18.319 29.04 17.651 29.498 z" style="stroke: none; stroke-width: 1; stroke-dasharray: none; stroke-linecap: butt; stroke-linejoin: miter; stroke-miterlimit: 10; fill: rgb(0,0,0); fill-rule: nonzero; opacity: 1;" transform=" matrix(1 0 0 1 0 0) " stroke-linecap="round" />
	<path d="M 83.135 27.241 c -0.631 -1.99 -1.999 -3.615 -3.853 -4.576 c -1.602 -0.831 -3.391 -1.072 -5.128 -0.719 c -0.043 -0.135 -0.083 -0.277 -0.128 -0.407 C 70.185 10.048 59.81 1.906 46.951 0.29 C 36.268 -1.05 26.457 2.311 20.458 9.168 C 20.44 9.19 20.416 9.202 20.4 9.226 c -0.006 0.009 -0.008 0.019 -0.014 0.028 c -0.733 0.846 -1.419 1.734 -2.031 2.684 c -3.232 5.439 -4.665 11.908 -4.792 21.622 c -0.056 2.714 -2.699 5.637 -4.63 7.771 c -1.33 1.471 -2.208 2.442 -2.39 3.328 c -0.093 0.418 -0.097 1.072 0.419 1.813 c 0.86 1.233 2.756 2.126 4.273 2.408 c -0.123 0.463 -0.513 1.247 -0.721 1.664 c -0.19 0.383 -0.363 0.734 -0.492 1.07 c -0.178 0.552 -0.091 1.125 0.244 1.614 c 0.391 0.567 1.09 0.973 1.856 1.261 c -0.929 0.512 -1.679 1.293 -1.616 2.673 c 0.074 1.271 1.295 1.7 2.026 1.956 c 0.08 0.028 0.176 0.062 0.268 0.097 c -0.645 1.94 -1.177 4.558 0.336 6.646 c 2.444 2.869 5.634 3.344 14.838 2.204 c 0.057 -0.007 0.112 -0.019 0.167 -0.035 c 0.507 -0.151 1.143 0.197 1.585 0.519 c 2.98 2.167 6.345 9.265 6.429 13.543 c 0.003 3.314 -0.496 4.34 -2.967 6.095 c -0.355 0.252 -0.506 0.705 -0.373 1.119 C 32.948 89.719 33.333 90 33.768 90 h 40.069 c 0.42 0 0.795 -0.263 0.939 -0.657 c 0.144 -0.394 0.026 -0.837 -0.295 -1.107 c -2.571 -2.168 -5.213 -5.823 -7.834 -10.825 c -5.587 -11.871 -5.985 -16.78 -5.316 -17.194 c 7.36 -4.467 11.511 -14.019 13.063 -22.909 c 0.438 0.075 0.875 0.118 1.31 0.118 c 2.848 0 5.54 -1.567 6.918 -4.225 C 83.585 31.347 83.767 29.23 83.135 27.241 z M 60.288 58.512 c -2.44 1.506 -0.909 8.151 4.569 19.788 c 2.184 4.17 4.325 7.37 6.493 9.7 H 36.463 c 1.305 -1.471 1.696 -3.095 1.693 -5.931 c -0.098 -4.958 -3.757 -12.598 -7.252 -15.14 c -1.142 -0.831 -2.235 -1.11 -3.25 -0.842 c -9.871 1.215 -11.495 0.234 -12.946 -1.463 c -0.786 -1.087 -0.744 -2.736 0.146 -5.234 c 0.437 -1.426 -1.086 -1.96 -1.66 -2.161 c -0.208 -0.073 -0.538 -0.188 -0.688 -0.284 c 0.04 -0.524 0.574 -0.793 2.011 -1.271 c 0.524 -0.175 1.067 -0.355 1.557 -0.601 c 0.405 -0.203 0.623 -0.653 0.531 -1.098 s -0.472 -0.77 -0.924 -0.795 c -1.748 -0.096 -3.373 -0.664 -3.721 -1.029 c 0.091 -0.209 0.214 -0.455 0.346 -0.719 c 0.648 -1.304 1.319 -2.652 0.759 -3.672 c -0.148 -0.27 -0.518 -0.737 -1.293 -0.819 c -1.201 -0.161 -2.681 -0.916 -3.168 -1.614 c -0.101 -0.144 -0.111 -0.224 -0.105 -0.25 c 0.092 -0.387 1.147 -1.554 1.918 -2.406 c 2.142 -2.368 5.075 -5.611 5.146 -9.079 c 0.122 -9.346 1.471 -15.517 4.492 -20.603 c 0.206 -0.32 0.434 -0.622 0.656 -0.93 c 1.278 1.868 4.342 4.092 8.273 6.939 c 5.677 4.112 12.742 9.229 14.598 13.877 L 44.031 34 l 1.018 -0.653 c 1.98 -1.268 3.996 -1.504 5.26 -0.617 c 1.115 0.782 1.489 2.411 1.021 4.486 c -0.631 3.024 -1.464 3.506 -2.843 4.303 c -1.172 0.677 -2.63 1.52 -4.309 3.845 c -0.323 0.448 -0.223 1.072 0.225 1.396 c 0.178 0.128 0.382 0.189 0.585 0.189 c 0.311 0 0.616 -0.145 0.811 -0.415 c 1.43 -1.978 2.63 -2.673 3.689 -3.285 c 0.324 -0.187 0.639 -0.371 0.942 -0.574 c 1.817 6.145 8.546 10.123 15.036 11.13 C 63.975 55.698 62.257 57.317 60.288 58.512 z M 66.771 52.002 c -0.055 -0.016 -0.104 -0.046 -0.163 -0.052 c -7.416 -0.832 -13.602 -5.529 -14.522 -10.972 c 0.474 -0.768 0.881 -1.814 1.199 -3.339 c 0.652 -2.89 -0.014 -5.276 -1.827 -6.548 c -1.705 -1.195 -4.123 -1.173 -6.496 0.008 c -2.524 -4.826 -9.024 -9.534 -14.805 -13.72 c -3.271 -2.368 -8.197 -5.937 -8.082 -7.035 c 5.562 -6.258 14.686 -9.317 24.625 -8.071 c 12.09 1.519 21.833 9.144 25.434 19.914 C 74.328 28.408 72.92 42.668 66.771 52.002 z M 80.849 32.28 c -1.186 2.289 -3.676 3.474 -6.147 3.041 c 0.573 -4.304 0.527 -8.338 -0.064 -11.433 c 1.264 -0.236 2.561 -0.052 3.725 0.551 c 1.379 0.715 2.397 1.925 2.867 3.405 C 81.699 29.326 81.563 30.9 80.849 32.28 z" style="stroke: none; stroke-width: 1; stroke-dasharray: none; stroke-linecap: butt; stroke-linejoin: miter; stroke-miterlimit: 10; fill: rgb(0,0,0); fill-rule: nonzero; opacity: 1;" transform=" matrix(1 0 0 1 0 0) " stroke-linecap="round" />
	<path d="M 17.651 33.495 c 0.143 -0.774 0.7 -1.461 1.515 -1.808 c 0.815 -0.348 1.763 -0.281 2.508 0 c 0.759 0.279 1.375 0.738 1.875 1.273 c 0.492 0.547 0.891 1.161 1.105 1.924 c -0.781 -0.146 -1.413 -0.405 -2.016 -0.642 c -0.596 -0.246 -1.145 -0.491 -1.653 -0.678 c -0.514 -0.185 -0.958 -0.313 -1.46 -0.35 C 19.016 33.16 18.414 33.278 17.651 33.495 z" style="stroke: none; stroke-width: 1; stroke-dasharray: none; stroke-linecap: butt; stroke-linejoin: miter; stroke-miterlimit: 10; fill: rgb(0,0,0); fill-rule: nonzero; opacity: 1;" transform=" matrix(1 0 0 1 0 0) " stroke-linecap="round" />
	<path d="M 29.426 24.46 l 0.438 0.168 c 0.513 0.196 1.093 -0.06 1.291 -0.577 c 0.197 -0.516 -0.06 -1.094 -0.577 -1.291 l -3.177 -1.217 c -0.034 -0.013 -0.07 -0.007 -0.105 -0.016 c -0.076 -0.02 -0.15 -0.033 -0.228 -0.035 c -0.058 -0.001 -0.112 0.003 -0.169 0.011 c -0.076 0.011 -0.147 0.032 -0.22 0.061 c -0.032 0.013 -0.067 0.011 -0.098 0.027 c -0.026 0.013 -0.041 0.039 -0.065 0.054 c -0.027 0.017 -0.059 0.022 -0.085 0.042 c -0.036 0.028 -0.055 0.068 -0.086 0.1 c -0.044 0.044 -0.085 0.087 -0.119 0.138 c -0.045 0.066 -0.075 0.135 -0.102 0.209 c -0.014 0.036 -0.041 0.065 -0.05 0.103 l -0.683 2.763 c -0.133 0.536 0.195 1.078 0.731 1.21 c 0.081 0.02 0.161 0.029 0.241 0.029 c 0.449 0 0.857 -0.305 0.97 -0.76 l 0.122 -0.492 c 1.176 2.219 2.1 5.14 1.964 7.395 c -0.033 0.551 0.387 1.025 0.938 1.058 c 0.021 0.001 0.041 0.002 0.061 0.002 c 0.525 0 0.965 -0.409 0.997 -0.94 C 31.57 29.924 30.65 26.887 29.426 24.46 z" style="stroke: none; stroke-width: 1; stroke-dasharray: none; stroke-linecap: butt; stroke-linejoin: miter; stroke-miterlimit: 10; fill: rgb(0,0,0); fill-rule: nonzero; opacity: 1;" transform=" matrix(1 0 0 1 0 0) " stroke-linecap="round" />
	<path d="M 17.377 39.899 c -0.209 0 -0.42 -0.065 -0.601 -0.201 c -0.147 -0.111 -0.291 -0.225 -0.431 -0.342 c -0.424 -0.353 -0.481 -0.984 -0.127 -1.408 c 0.354 -0.425 0.984 -0.481 1.408 -0.127 c 0.114 0.095 0.232 0.188 0.353 0.279 c 0.441 0.332 0.529 0.959 0.197 1.4 C 17.981 39.761 17.681 39.899 17.377 39.899 z" style="stroke: none; stroke-width: 1; stroke-dasharray: none; stroke-linecap: butt; stroke-linejoin: miter; stroke-miterlimit: 10; fill: rgb(0,0,0); fill-rule: nonzero; opacity: 1;" transform=" matrix(1 0 0 1 0 0) " stroke-linecap="round" />
	<path d="M 22.376 42.116 c -0.066 0 -0.132 -0.006 -0.199 -0.02 c -0.386 -0.078 -0.772 -0.175 -1.156 -0.289 c -0.529 -0.158 -0.831 -0.714 -0.673 -1.244 c 0.158 -0.53 0.716 -0.831 1.244 -0.673 c 0.326 0.097 0.654 0.179 0.982 0.246 c 0.541 0.109 0.892 0.637 0.782 1.178 C 23.26 41.789 22.842 42.116 22.376 42.116 z M 26.732 41.982 c -0.415 0 -0.803 -0.261 -0.945 -0.675 c -0.18 -0.522 0.098 -1.091 0.62 -1.271 c 0.289 -0.1 0.556 -0.225 0.792 -0.372 c 0.468 -0.291 1.085 -0.149 1.377 0.32 c 0.292 0.469 0.149 1.085 -0.32 1.377 c -0.364 0.227 -0.767 0.417 -1.198 0.565 C 26.95 41.964 26.84 41.982 26.732 41.982 z" style="stroke: none; stroke-width: 1; stroke-dasharray: none; stroke-linecap: butt; stroke-linejoin: miter; stroke-miterlimit: 10; fill: rgb(0,0,0); fill-rule: nonzero; opacity: 1;" transform=" matrix(1 0 0 1 0 0) " stroke-linecap="round" />
	<path d="M 29.767 37.788 c -0.023 0 -0.046 -0.001 -0.07 -0.002 c -0.551 -0.038 -0.967 -0.516 -0.929 -1.066 c 0.01 -0.14 0.014 -0.285 0.014 -0.434 c 0 -0.552 0.448 -1 1 -1 c 0.552 0 1 0.448 1 1 c 0 0.196 -0.006 0.386 -0.019 0.571 C 30.727 37.385 30.288 37.788 29.767 37.788 z" style="stroke: none; stroke-width: 1; stroke-dasharray: none; stroke-linecap: butt; stroke-linejoin: miter; stroke-miterlimit: 10; fill: rgb(0,0,0); fill-rule: nonzero; opacity: 1;" transform=" matrix(1 0 0 1 0 0) " stroke-linecap="round" />
</g>
</g>
</svg>