<svg xmlns="http://www.w3.org/2000/svg" xmlns:xlink="http://www.w3.org/1999/xlink" version="1.1" width="256" height="256" viewBox="0 0 256 256" xml:space="preserve">
<desc>Created with Fabric.js 1.7.22</desc>
<defs>
</defs>
<g transform="translate(128 128) scale(0.72 0.72)" style="">
	<g style="stroke: none; stroke-width: 0; stroke-dasharray: none; stroke-linecap: butt; stroke-linejoin: miter; stroke-miterlimit: 10; fill: none; fill-rule: nonzero; opacity: 1;" transform="translate(-175.05 -175.05000000000004) scale(3.89 3.89)" >
	<path d="M 80.082 66.506 l -1.854 -2.938 c -0.017 -0.027 -0.046 -0.041 -0.065 -0.065 c -0.053 -0.069 -0.112 -0.128 -0.181 -0.181 c -0.044 -0.034 -0.085 -0.064 -0.133 -0.09 c -0.074 -0.04 -0.152 -0.063 -0.235 -0.084 c -0.039 -0.01 -0.072 -0.035 -0.112 -0.04 c -0.02 -0.002 -0.038 0.007 -0.057 0.006 c -0.022 -0.001 -0.041 -0.013 -0.063 -0.013 c -0.067 0 -0.126 0.026 -0.19 0.038 c -0.054 0.011 -0.108 0.013 -0.159 0.032 c -0.108 0.041 -0.202 0.102 -0.288 0.175 c -0.017 0.015 -0.04 0.019 -0.057 0.035 l -0.013 0.012 c 0 0 0 0 0 0 l -2.334 2.254 c -0.397 0.384 -0.408 1.018 -0.025 1.414 c 0.385 0.398 1.019 0.407 1.414 0.025 l 0.421 -0.406 c -0.459 2.814 -1.58 6.108 -3.187 8.25 c -0.331 0.442 -0.242 1.069 0.199 1.4 c 0.181 0.135 0.391 0.2 0.6 0.2 c 0.304 0 0.604 -0.138 0.801 -0.399 c 1.826 -2.433 3.027 -5.976 3.537 -9.02 l 0.29 0.46 c 0.19 0.302 0.515 0.467 0.847 0.467 c 0.183 0 0.367 -0.05 0.532 -0.154 C 80.237 67.59 80.377 66.973 80.082 66.506 z" style="stroke: none; stroke-width: 1; stroke-dasharray: none; stroke-linecap: butt; stroke-linejoin: miter; stroke-miterlimit: 10; fill: rgb(0,0,0); fill-rule: nonzero; opacity: 1;" transform=" matrix(1 0 0 1 0 0) " stroke-linecap="round" />
	<path d="M 17.036 74.932 c -1.607 -2.142 -2.728 -5.436 -3.187 -8.25 l 0.42 0.406 c 0.398 0.384 1.031 0.373 1.414 -0.025 c 0.384 -0.396 0.373 -1.03 -0.024 -1.414 l -2.347 -2.267 c -0.019 -0.018 -0.045 -0.023 -0.066 -0.04 c -0.084 -0.07 -0.174 -0.13 -0.278 -0.169 c -0.053 -0.02 -0.109 -0.022 -0.165 -0.033 c -0.063 -0.012 -0.12 -0.038 -0.186 -0.038 c -0.022 0 -0.041 0.011 -0.062 0.013 c -0.02 0.001 -0.038 -0.008 -0.057 -0.006 c -0.04 0.005 -0.073 0.03 -0.112 0.04 c -0.083 0.02 -0.161 0.044 -0.235 0.084 c -0.049 0.026 -0.09 0.056 -0.134 0.09 c -0.069 0.053 -0.127 0.112 -0.18 0.18 c -0.019 0.025 -0.049 0.039 -0.066 0.066 l -1.854 2.938 c -0.295 0.467 -0.155 1.084 0.312 1.379 c 0.166 0.104 0.35 0.154 0.533 0.154 c 0.332 0 0.657 -0.165 0.847 -0.467 l 0.29 -0.459 c 0.51 3.044 1.711 6.587 3.537 9.02 c 0.196 0.262 0.497 0.399 0.801 0.399 c 0.208 0 0.419 -0.065 0.599 -0.2 C 17.278 76.001 17.368 75.374 17.036 74.932 z" style="stroke: none; stroke-width: 1; stroke-dasharray: none; stroke-linecap: butt; stroke-linejoin: miter; stroke-miterlimit: 10; fill: rgb(0,0,0); fill-rule: nonzero; opacity: 1;" transform=" matrix(1 0 0 1 0 0) " stroke-linecap="round" />
	<path d="M 60.939 45.855 c -1.143 -0.164 -2.171 -0.392 -3.175 -0.505 c -0.999 -0.125 -1.951 -0.156 -2.876 -0.053 c -0.926 0.099 -1.83 0.34 -2.748 0.717 c -0.926 0.364 -1.839 0.871 -2.875 1.381 c 0.418 -1.076 1.146 -2.001 2.076 -2.736 c 0.93 -0.73 2.104 -1.225 3.323 -1.349 c 1.218 -0.136 2.444 0.077 3.518 0.529 C 59.255 44.302 60.205 44.966 60.939 45.855 z" style="stroke: none; stroke-width: 1; stroke-dasharray: none; stroke-linecap: butt; stroke-linejoin: miter; stroke-miterlimit: 10; fill: rgb(0,0,0); fill-rule: nonzero; opacity: 1;" transform=" matrix(1 0 0 1 0 0) " stroke-linecap="round" />
	<path d="M 40.167 47.395 c -1.034 -0.512 -1.947 -1.02 -2.873 -1.384 c -0.917 -0.376 -1.822 -0.618 -2.749 -0.714 c -0.925 -0.1 -1.877 -0.069 -2.875 0.055 c -1.003 0.114 -2.031 0.341 -3.176 0.503 c 0.733 -0.891 1.683 -1.556 2.757 -2.019 c 1.074 -0.452 2.3 -0.665 3.518 -0.526 c 1.219 0.127 2.391 0.622 3.321 1.351 C 39.019 45.396 39.747 46.32 40.167 47.395 z" style="stroke: none; stroke-width: 1; stroke-dasharray: none; stroke-linecap: butt; stroke-linejoin: miter; stroke-miterlimit: 10; fill: rgb(0,0,0); fill-rule: nonzero; opacity: 1;" transform=" matrix(1 0 0 1 0 0) " stroke-linecap="round" />
	<path d="M 46.524 54.259 c 0.638 1.114 1.119 2.223 1.601 3.321 c 0.472 1.1 0.92 2.193 1.351 3.295 l 0.003 0.008 c 0.014 0.037 0.027 0.079 0.037 0.117 c 0.11 0.449 0.105 1.131 -0.278 1.652 c -0.38 0.515 -0.836 0.702 -1.207 0.819 c -0.761 0.223 -1.41 0.206 -2.046 0.161 c -1.263 -0.121 -2.436 -0.445 -3.569 -0.984 c 1.219 -0.284 2.41 -0.38 3.516 -0.578 c 0.543 -0.091 1.09 -0.207 1.45 -0.373 c 0.178 -0.08 0.283 -0.176 0.234 -0.163 c -0.035 0.03 -0.021 0.077 -0.039 -0.048 l 0.04 0.124 c -0.463 -1.155 -0.804 -2.361 -1.009 -3.592 C 46.416 56.787 46.334 55.531 46.524 54.259 z" style="stroke: none; stroke-width: 1; stroke-dasharray: none; stroke-linecap: butt; stroke-linejoin: miter; stroke-miterlimit: 10; fill: rgb(0,0,0); fill-rule: nonzero; opacity: 1;" transform=" matrix(1 0 0 1 0 0) " stroke-linecap="round" />
	<path d="M 34.838 69.078 c 1.653 0.301 3.222 0.624 4.788 0.842 c 1.564 0.218 3.115 0.327 4.664 0.33 c 1.549 -0.007 3.1 -0.113 4.663 -0.333 c 1.565 -0.218 3.134 -0.54 4.788 -0.839 c -1.308 1.057 -2.824 1.83 -4.431 2.358 c -1.607 0.529 -3.312 0.818 -5.021 0.813 c -1.709 0.001 -3.414 -0.286 -5.02 -0.816 C 37.663 70.905 36.147 70.133 34.838 69.078 z" style="stroke: none; stroke-width: 1; stroke-dasharray: none; stroke-linecap: butt; stroke-linejoin: miter; stroke-miterlimit: 10; fill: rgb(0,0,0); fill-rule: nonzero; opacity: 1;" transform=" matrix(1 0 0 1 0 0) " stroke-linecap="round" />
	<path d="M 74.337 44.16 c -0.257 -0.055 -0.651 -0.071 -1.117 0.106 c 3.09 -11.613 1.514 -22.559 -4.593 -31.143 C 62.957 5.151 53.686 0 45.007 0 c -8.678 0 -17.95 5.151 -23.621 13.122 c -6.108 8.587 -7.684 19.535 -4.591 31.15 c -0.474 -0.183 -0.873 -0.167 -1.131 -0.112 c -1.059 0.221 -2.104 1.456 -1.862 4.282 c 0.424 3.74 1.665 5.441 3.235 7.595 c 0.572 0.785 1.219 1.676 1.896 2.765 c 0.714 5.251 1.994 11.788 4.173 15.167 c 4.794 7.345 9.805 12.063 15.314 14.426 C 40.936 89.49 43.029 90 45.007 90 c 2.413 0 4.311 -0.614 6.584 -1.604 c 5.514 -2.364 10.524 -7.084 15.321 -14.433 c 2.184 -3.387 3.464 -9.955 4.176 -15.206 c 0.563 -0.972 1.171 -1.816 1.762 -2.628 c 1.51 -2.079 2.936 -4.042 3.352 -7.715 C 76.44 45.616 75.395 44.381 74.337 44.16 z M 23.016 14.282 C 28.323 6.821 36.955 2 45.007 2 s 16.684 4.821 21.99 12.282 c 4.877 6.855 6.676 15.345 5.326 24.491 c -0.052 -0.688 -0.128 -1.32 -0.235 -1.858 C 69.213 22.669 59.343 14.5 45.007 14.5 c -14.546 0 -24.164 7.96 -27.082 22.416 c -0.108 0.537 -0.183 1.168 -0.235 1.855 C 16.341 29.625 18.14 21.137 23.016 14.282 z M 15.792 48.245 c -0.127 -1.486 0.227 -2.076 0.25 -2.125 c 0.188 0.023 1.063 0.635 1.936 3.171 c 0.082 0.95 0.148 1.578 0.157 1.665 c 0.011 0.191 0.098 1.575 0.299 3.601 C 17.055 52.659 16.135 51.271 15.792 48.245 z M 65.233 72.875 c -4.57 7.004 -9.291 11.479 -14.437 13.686 C 48.702 87.473 47.083 88 45.007 88 c -1.694 0 -3.534 -0.457 -5.795 -1.441 c -5.14 -2.204 -9.86 -6.68 -14.429 -13.679 c -3.625 -5.623 -4.642 -21.88 -4.655 -22.089 c -0.01 -0.096 -1.011 -9.641 -0.242 -13.481 C 22.595 23.89 31.517 16.5 45.007 16.5 c 13.491 0 22.412 7.39 25.12 20.808 c 0.77 3.842 -0.231 13.387 -0.245 13.529 C 69.872 51 68.858 67.254 65.233 72.875 z M 74.212 48.218 c -0.324 2.852 -1.37 4.498 -2.623 6.241 c 0.192 -1.955 0.275 -3.282 0.285 -3.457 c 0.011 -0.1 0.08 -0.759 0.165 -1.753 c 0.867 -2.496 1.731 -3.106 1.848 -3.146 C 73.981 46.169 74.336 46.759 74.212 48.218 z" style="stroke: none; stroke-width: 1; stroke-dasharray: none; stroke-linecap: butt; stroke-linejoin: miter; stroke-miterlimit: 10; fill: rgb(0,0,0); fill-rule: nonzero; opacity: 1;" transform=" matrix(1 0 0 1 0 0) " stroke-linecap="round" />
	<path d="M 63.45 41.747 c -1.154 -0.457 -2.335 -0.786 -3.531 -0.911 c -1.19 -0.143 -2.383 -0.127 -3.54 0.034 c -1.169 0.165 -2.227 0.659 -3.344 0.91 c -1.129 0.27 -2.239 0.611 -3.556 0.892 l -0.119 -0.161 c 0.684 -1.19 1.785 -2.031 2.99 -2.611 c 1.216 -0.601 2.612 -0.626 3.92 -0.627 c 1.32 -0.006 2.629 0.194 3.863 0.586 c 1.229 0.408 2.395 0.966 3.413 1.713 L 63.45 41.747 z" style="stroke: none; stroke-width: 1; stroke-dasharray: none; stroke-linecap: butt; stroke-linejoin: miter; stroke-miterlimit: 10; fill: rgb(0,0,0); fill-rule: nonzero; opacity: 1;" transform=" matrix(1 0 0 1 0 0) " stroke-linecap="round" />
	<path d="M 26.295 41.572 c 1.018 -0.747 2.184 -1.305 3.413 -1.713 c 1.235 -0.392 2.544 -0.591 3.863 -0.586 c 1.308 0.001 2.704 0.025 3.92 0.627 c 1.205 0.579 2.306 1.421 2.99 2.611 l -0.119 0.161 c -1.317 -0.281 -2.428 -0.622 -3.556 -0.892 c -1.116 -0.25 -2.175 -0.744 -3.344 -0.91 c -1.158 -0.162 -2.35 -0.177 -3.54 -0.034 c -1.196 0.126 -2.377 0.454 -3.531 0.911 L 26.295 41.572 z" style="stroke: none; stroke-width: 1; stroke-dasharray: none; stroke-linecap: butt; stroke-linejoin: miter; stroke-miterlimit: 10; fill: rgb(0,0,0); fill-rule: nonzero; opacity: 1;" transform=" matrix(1 0 0 1 0 0) " stroke-linecap="round" />
	<path d="M 66.229 53.25 c -0.048 0 -0.097 -0.003 -0.146 -0.011 c -0.546 -0.079 -0.925 -0.587 -0.845 -1.134 c 0.047 -0.322 0.091 -0.647 0.133 -0.975 c 0.071 -0.546 0.573 -0.925 1.12 -0.864 c 0.548 0.071 0.935 0.572 0.864 1.12 c -0.044 0.339 -0.09 0.674 -0.139 1.008 C 67.146 52.892 66.718 53.25 66.229 53.25 z M 66.713 48.275 c -0.016 0 -0.032 0 -0.048 -0.001 c -0.552 -0.026 -0.978 -0.494 -0.952 -1.046 c 0.016 -0.325 0.027 -0.65 0.035 -0.977 c 0.013 -0.552 0.448 -1.017 1.023 -0.976 c 0.552 0.013 0.989 0.471 0.977 1.023 c -0.008 0.342 -0.021 0.683 -0.037 1.023 C 67.686 47.858 67.243 48.275 66.713 48.275 z M 66.669 43.277 c -0.521 0 -0.96 -0.403 -0.996 -0.93 c -0.023 -0.326 -0.05 -0.65 -0.08 -0.972 c -0.053 -0.55 0.351 -1.038 0.9 -1.09 c 0.556 -0.05 1.038 0.351 1.09 0.901 c 0.032 0.337 0.061 0.678 0.084 1.021 c 0.039 0.551 -0.376 1.029 -0.927 1.067 C 66.716 43.276 66.692 43.277 66.669 43.277 z M 65.945 38.334 c -0.452 0 -0.862 -0.309 -0.972 -0.769 c -0.074 -0.313 -0.156 -0.621 -0.242 -0.923 c -0.152 -0.531 0.154 -1.084 0.685 -1.237 c 0.533 -0.151 1.085 0.154 1.237 0.686 c 0.096 0.331 0.184 0.668 0.266 1.012 c 0.128 0.537 -0.204 1.076 -0.741 1.204 C 66.1 38.326 66.022 38.334 65.945 38.334 z M 64.162 33.683 c -0.343 0 -0.676 -0.176 -0.862 -0.492 c -0.157 -0.267 -0.322 -0.522 -0.496 -0.767 c -0.32 -0.45 -0.216 -1.074 0.234 -1.395 c 0.45 -0.319 1.076 -0.215 1.395 0.235 c 0.207 0.291 0.403 0.594 0.59 0.911 c 0.28 0.476 0.122 1.089 -0.354 1.369 C 64.51 33.639 64.335 33.683 64.162 33.683 z" style="stroke: none; stroke-width: 1; stroke-dasharray: none; stroke-linecap: butt; stroke-linejoin: miter; stroke-miterlimit: 10; fill: rgb(0,0,0); fill-rule: nonzero; opacity: 1;" transform=" matrix(1 0 0 1 0 0) " stroke-linecap="round" />
	<path d="M 23.77 53.25 c -0.488 0 -0.915 -0.357 -0.988 -0.854 c -0.049 -0.335 -0.096 -0.672 -0.139 -1.012 c -0.069 -0.548 0.319 -1.048 0.867 -1.117 c 0.547 -0.063 1.048 0.318 1.117 0.867 c 0.041 0.326 0.085 0.649 0.133 0.971 c 0.081 0.546 -0.297 1.055 -0.844 1.135 C 23.867 53.247 23.818 53.25 23.77 53.25 z M 23.286 48.275 c -0.531 0 -0.973 -0.417 -0.998 -0.953 c -0.016 -0.34 -0.028 -0.68 -0.037 -1.021 c -0.015 -0.552 0.421 -1.012 0.973 -1.026 c 0.54 -0.047 1.011 0.421 1.026 0.973 c 0.009 0.327 0.021 0.653 0.036 0.979 c 0.026 0.552 -0.4 1.02 -0.952 1.046 C 23.318 48.275 23.302 48.275 23.286 48.275 z M 23.33 43.277 c -0.023 0 -0.046 -0.001 -0.069 -0.002 c -0.551 -0.038 -0.967 -0.515 -0.929 -1.066 c 0.023 -0.344 0.052 -0.686 0.084 -1.024 c 0.053 -0.549 0.546 -0.952 1.091 -0.9 c 0.55 0.053 0.953 0.542 0.9 1.091 c -0.031 0.321 -0.058 0.644 -0.08 0.969 C 24.291 42.874 23.851 43.277 23.33 43.277 z M 24.053 38.335 c -0.077 0 -0.156 -0.009 -0.234 -0.027 c -0.537 -0.129 -0.868 -0.668 -0.74 -1.206 c 0.083 -0.343 0.17 -0.68 0.265 -1.01 c 0.152 -0.531 0.707 -0.837 1.237 -0.686 c 0.531 0.153 0.838 0.707 0.686 1.237 c -0.087 0.302 -0.168 0.611 -0.243 0.924 C 24.915 38.027 24.504 38.335 24.053 38.335 z M 25.836 33.684 c -0.172 0 -0.347 -0.044 -0.506 -0.138 c -0.476 -0.28 -0.635 -0.893 -0.355 -1.369 c 0.187 -0.317 0.383 -0.622 0.591 -0.913 c 0.32 -0.45 0.944 -0.554 1.395 -0.233 c 0.449 0.321 0.554 0.945 0.233 1.395 c -0.174 0.244 -0.339 0.499 -0.496 0.765 C 26.513 33.508 26.179 33.684 25.836 33.684 z" style="stroke: none; stroke-width: 1; stroke-dasharray: none; stroke-linecap: butt; stroke-linejoin: miter; stroke-miterlimit: 10; fill: rgb(0,0,0); fill-rule: nonzero; opacity: 1;" transform=" matrix(1 0 0 1 0 0) " stroke-linecap="round" />
</g>
</g>
</svg>